<svg width="154" height="34" viewBox="0 0 154 34" fill="none" xmlns="http://www.w3.org/2000/svg">
<path d="M87.0878 26.4114C86.0902 25.3012 85.5914 23.7647 85.5914 21.8017C85.5914 19.8388 86.0902 18.3023 87.0878 17.1921C88.1014 16.0819 89.461 15.5268 91.1664 15.5268C92.8719 15.5268 94.2235 16.0819 95.221 17.1921C96.2186 18.3023 96.7173 19.8388 96.7173 21.8017C96.7173 23.7647 96.2186 25.3012 95.221 26.4114C94.2235 27.5216 92.8719 28.0766 91.1664 28.0766C89.461 28.0766 88.1014 27.5216 87.0878 26.4114ZM91.1664 19.5573C90.2654 19.5573 89.8149 20.2974 89.8149 21.7776C89.8149 23.2578 90.2654 23.998 91.1664 23.998C92.0836 23.998 92.5421 23.2578 92.5421 21.7776C92.5421 20.2974 92.0836 19.5573 91.1664 19.5573ZM98.3028 15.913C98.3028 15.736 98.9947 15.6475 100.378 15.6475C101.762 15.6475 102.454 15.736 102.454 15.913V22.9602C102.454 23.7647 102.711 24.1669 103.226 24.1669C103.612 24.1669 104.047 23.998 104.529 23.6601V15.913C104.529 15.7521 105.213 15.6716 106.581 15.6716C107.948 15.6716 108.632 15.7521 108.632 15.913V23.829H109.26C109.807 23.829 110.08 24.3519 110.08 25.3977C110.08 25.9287 109.968 26.4677 109.742 27.0147C109.421 27.7227 108.986 28.0766 108.439 28.0766C107.361 28.0766 106.565 27.6342 106.05 26.7493L106.026 26.7734C105.044 27.6422 103.99 28.0766 102.864 28.0766C101.304 28.0766 100.153 27.6905 99.413 26.9182C98.6729 26.1298 98.3028 24.8346 98.3028 23.0326V15.913ZM112.058 23.4911C113.361 24.2795 114.391 24.6737 115.147 24.6737C115.63 24.6737 115.871 24.5048 115.871 24.1669C115.871 23.9256 115.453 23.6118 114.616 23.2257C112.605 22.4051 111.599 21.0616 111.599 19.1952C111.599 18.0046 112.034 17.0956 112.903 16.4681C113.772 15.8406 114.809 15.5268 116.016 15.5268C117.239 15.5268 118.269 15.6556 119.105 15.913C119.958 16.1704 120.384 16.5083 120.384 16.9266C120.384 17.2806 120.207 17.7472 119.853 18.3264C119.516 18.9056 119.282 19.2194 119.154 19.2676C118.462 18.8815 117.713 18.6884 116.909 18.6884C116.475 18.6884 116.257 18.8413 116.257 19.147C116.257 19.34 116.338 19.509 116.499 19.6538C116.676 19.7825 116.989 19.9514 117.44 20.1606C117.89 20.3537 118.261 20.5307 118.55 20.6916C118.856 20.8525 119.194 21.0777 119.564 21.3673C120.336 21.9787 120.722 22.7752 120.722 23.7566C120.722 25.0438 120.296 26.0896 119.443 26.8941C118.59 27.6825 117.303 28.0766 115.582 28.0766C114.439 28.0766 113.402 27.8836 112.468 27.4974C111.535 27.1113 111.069 26.5803 111.069 25.9046C111.069 25.4541 111.173 24.9794 111.382 24.4806C111.608 23.9819 111.833 23.652 112.058 23.4911ZM126.833 27.6905C126.833 27.8192 126.093 27.8836 124.613 27.8836C123.148 27.8836 122.416 27.8273 122.416 27.7146V15.8647C122.416 15.7521 123.148 15.6958 124.613 15.6958C126.093 15.6958 126.833 15.744 126.833 15.8406V27.6905ZM126.833 14.4167C126.833 14.5293 126.093 14.5856 124.613 14.5856C123.148 14.5856 122.416 14.5373 122.416 14.4408V10.9655C122.416 10.8046 123.148 10.7241 124.613 10.7241C126.093 10.7241 126.833 10.7724 126.833 10.8689V14.4167ZM134.06 27.6905C134.06 27.8031 133.48 27.8594 132.322 27.8594C130.713 27.8112 129.909 27.7227 129.909 27.594V19.7745H129.281C128.863 19.7745 128.589 19.4205 128.46 18.7126C128.428 18.5034 128.412 18.2942 128.412 18.0851C128.412 17.5863 128.509 17.0875 128.702 16.5887C128.991 15.8808 129.442 15.5268 130.053 15.5268C130.665 15.5268 131.212 15.6716 131.694 15.9613C132.177 16.2509 132.499 16.5405 132.66 16.8301C133.673 15.9613 134.88 15.5268 136.28 15.5268C137.68 15.5268 138.693 15.9049 139.321 16.6611C139.948 17.4174 140.262 18.6562 140.262 20.3778V27.6181C140.262 27.8112 139.57 27.9077 138.187 27.9077C136.819 27.9077 136.135 27.8112 136.135 27.6181V20.6433C136.135 19.8388 135.854 19.4366 135.29 19.4366C135.13 19.4366 134.904 19.509 134.615 19.6538C134.325 19.7825 134.14 19.879 134.06 19.9434V27.6905ZM146.749 27.8353C145.188 27.8353 143.982 27.3365 143.129 26.339C142.276 25.3253 141.85 23.8371 141.85 21.8741C141.85 19.8951 142.405 18.3505 143.515 17.2404C144.641 16.1141 146.129 15.551 147.98 15.551C149.846 15.551 151.383 15.9613 152.589 16.7818V28.8007C152.589 29.9913 152.107 30.9004 151.141 31.5278C150.176 32.1714 148.937 32.4932 147.425 32.4932C145.912 32.4932 144.561 32.3001 143.37 31.914C143.209 31.5278 143.129 31.1819 143.129 30.8762C143.129 29.8465 143.298 29.0903 143.636 28.6076C144.714 29.0742 145.864 29.3075 147.087 29.3075C147.972 29.3075 148.414 28.9937 148.414 28.3663V27.6422C147.722 27.7709 147.167 27.8353 146.749 27.8353ZM147.859 19.4849C146.781 19.4849 146.242 20.2974 146.242 21.9224C146.242 22.9361 146.451 23.5957 146.87 23.9014C147.143 24.1106 147.417 24.2152 147.69 24.2152C147.964 24.2152 148.205 24.191 148.414 24.1428V19.5573C148.221 19.509 148.036 19.4849 147.859 19.4849Z" fill="#001A35"/>
<g clip-path="url(#clip0_908_384)">
<path d="M84.4282 15.8226C84.3145 15.8232 84.2018 15.8024 84.0966 15.7614C83.9914 15.7204 83.8957 15.66 83.815 15.5836L71.473 3.799L59.131 15.5836C58.9658 15.7186 58.7533 15.7891 58.5359 15.7811C58.3185 15.7731 58.1123 15.6871 57.9585 15.5404C57.8047 15.3936 57.7146 15.1968 57.7062 14.9894C57.6978 14.782 57.7718 14.5792 57.9132 14.4216L70.8684 2.06015C71.0302 1.90666 71.2491 1.82051 71.4773 1.82051C71.7055 1.82051 71.9244 1.90666 72.0862 2.06015L85.0414 14.4216C85.1602 14.5373 85.2407 14.6838 85.2728 14.8429C85.3048 15.002 85.287 15.1666 85.2216 15.3161C85.1561 15.4656 85.046 15.5933 84.9049 15.6834C84.7638 15.7735 84.598 15.8219 84.4282 15.8226Z" fill="#001A35"/>
<path d="M71.473 6.58444L61.1089 16.5066V26.5358C61.1089 26.9729 61.2909 27.3922 61.6148 27.7013C61.9388 28.0104 62.3781 28.184 62.8362 28.184H68.882V19.943H74.0641V28.184H80.1098C80.5679 28.184 81.0073 28.0104 81.3312 27.7013C81.6552 27.3922 81.8372 26.9729 81.8372 26.5358V16.4489L71.473 6.58444Z" fill="#001A35"/>
</g>
<path d="M8.67702 27.4492C8.67702 27.7709 7.88059 27.9318 6.28773 27.9318C4.69486 27.9318 3.89843 27.7709 3.89843 27.4492V15.3338H1.00232C0.728803 15.3338 0.535729 14.9637 0.423103 14.2236C0.374834 13.8696 0.3507 13.5076 0.3507 13.1375C0.3507 12.7675 0.374834 12.4055 0.423103 12.0515C0.535729 11.3114 0.728803 10.9413 1.00232 10.9413H11.5007C11.7742 10.9413 11.9673 11.3114 12.0799 12.0515C12.1282 12.4055 12.1523 12.7675 12.1523 13.1375C12.1523 13.5076 12.1282 13.8696 12.0799 14.2236C11.9673 14.9637 11.7742 15.3338 11.5007 15.3338H8.67702V27.4492ZM18.3381 27.8112C18.3381 27.9238 17.606 27.9801 16.1419 27.9801C14.6777 27.9479 13.9456 27.8836 13.9456 27.787V19.7745H13.294C13.0366 19.7745 12.8274 19.6216 12.6665 19.3159C12.5217 18.9941 12.4493 18.5999 12.4493 18.1333C12.4493 16.3957 12.9642 15.5268 13.9939 15.5268C14.7179 15.5268 15.3213 15.7521 15.804 16.2026C16.2867 16.637 16.528 17.1358 16.528 17.6989C16.8659 17.0392 17.3164 16.5163 17.8795 16.1302C18.4587 15.728 19.046 15.5268 19.6413 15.5268C20.5745 15.5268 21.1376 15.7682 21.3307 16.2509C21.379 16.3796 21.4031 16.5727 21.4031 16.8301C21.4031 17.0714 21.3227 17.5139 21.1618 18.1575C21.017 18.801 20.8641 19.2676 20.7032 19.5573C20.5423 19.8469 20.4458 19.9917 20.4136 19.9917C20.3814 19.9917 20.2286 19.9354 19.9551 19.8227C19.6976 19.694 19.4643 19.6297 19.2552 19.6297C18.6438 19.6297 18.3381 20.1123 18.3381 21.0777V27.8112ZM31.7443 27.1837C30.7306 27.779 29.4274 28.0766 27.8345 28.0766C26.2417 28.0766 24.8982 27.5376 23.8041 26.4597C22.71 25.3656 22.163 23.8612 22.163 21.9465C22.163 20.0158 22.6859 18.4632 23.7317 17.2886C24.7936 16.1141 26.129 15.5268 27.738 15.5268C29.3469 15.5268 30.5858 15.9371 31.4547 16.7577C32.3396 17.5782 32.782 18.5758 32.782 19.7503C32.782 22.3568 31.2857 23.6601 28.2931 23.6601H26.6278C26.6278 24.1428 26.7565 24.4806 27.014 24.6737C27.2875 24.8507 27.6817 24.9392 28.1965 24.9392C29.3228 24.9392 30.3928 24.6818 31.4064 24.1669C31.4225 24.1508 31.4949 24.2634 31.6236 24.5048C32.0097 25.1966 32.2028 25.7839 32.2028 26.2666C32.2028 26.7332 32.05 27.0389 31.7443 27.1837ZM28.7275 20.2089C28.7275 19.5331 28.3977 19.1952 27.738 19.1952C27.4323 19.1952 27.1668 19.2918 26.9416 19.4849C26.7324 19.6618 26.6278 19.9273 26.6278 20.2813V21.0294H27.9311C28.462 21.0294 28.7275 20.7559 28.7275 20.2089ZM39.4027 27.6905C39.4027 27.8031 38.8235 27.8594 37.6651 27.8594C36.0561 27.8112 35.2517 27.7227 35.2517 27.594V19.7745H34.6242C34.2058 19.7745 33.9323 19.4205 33.8036 18.7126C33.7714 18.5034 33.7553 18.2942 33.7553 18.0851C33.7553 17.5863 33.8519 17.0875 34.0449 16.5887C34.3346 15.8808 34.7851 15.5268 35.3965 15.5268C36.0079 15.5268 36.5549 15.6716 37.0376 15.9613C37.5203 16.2509 37.8421 16.5405 38.003 16.8301C39.0166 15.9613 40.2233 15.5268 41.6231 15.5268C43.0229 15.5268 44.0365 15.9049 44.664 16.6611C45.2915 17.4174 45.6052 18.6562 45.6052 20.3778V27.6181C45.6052 27.8112 44.9134 27.9077 43.5297 27.9077C42.1621 27.9077 41.4783 27.8112 41.4783 27.6181V20.6433C41.4783 19.8388 41.1967 19.4366 40.6336 19.4366C40.4727 19.4366 40.2474 19.509 39.9578 19.6538C39.6682 19.7825 39.4832 19.879 39.4027 19.9434V27.6905ZM51.6094 21.85C51.6094 23.4268 52.2047 24.2152 53.3953 24.2152C54.1676 24.2152 54.8112 24.0623 55.3261 23.7566C55.5674 23.7566 55.7605 24.1749 55.9053 25.0116C56.0662 25.8322 56.1466 26.3953 56.1466 26.701C56.1466 26.9906 56.1064 27.1837 56.026 27.2802C55.1732 27.8112 54.0067 28.0766 52.5265 28.0766C51.0463 28.0766 49.7832 27.5296 48.7374 26.4355C47.7077 25.3253 47.1928 23.821 47.1928 21.9224C47.1928 20.0078 47.6996 18.4632 48.7133 17.2886C49.743 16.1141 51.1026 15.5268 52.792 15.5268C54.4975 15.5268 55.68 15.9371 56.3397 16.7577C56.4845 16.9347 56.5569 17.2001 56.5569 17.5541C56.5569 17.892 56.4926 18.3103 56.3638 18.8091C56.0742 19.8388 55.6961 20.4341 55.2295 20.595C55.1652 20.6111 55.0686 20.6192 54.9399 20.6192C54.8273 20.6192 54.6825 20.5226 54.5055 20.3296C53.878 19.7021 53.3712 19.3883 52.985 19.3883C52.615 19.3883 52.2932 19.5814 52.0197 19.9675C51.7462 20.3537 51.6094 20.9812 51.6094 21.85Z" fill="#001A35"/>
<defs>
<clipPath id="clip0_908_384">
<rect width="31.0924" height="29.6675" fill="white" transform="translate(55.9268 0.164734)"/>
</clipPath>
</defs>
</svg>
